<svg width="18" height="17" viewBox="0 0 18 17" fill="none" xmlns="http://www.w3.org/2000/svg">
<path d="M12.75 9.5C13.1642 9.5 13.5 9.16421 13.5 8.75C13.5 8.33579 13.1642 8 12.75 8C12.3358 8 12 8.33579 12 8.75C12 9.16421 12.3358 9.5 12.75 9.5Z" fill="black"/>
<path d="M12.75 12.5C13.1642 12.5 13.5 12.1642 13.5 11.75C13.5 11.3358 13.1642 11 12.75 11C12.3358 11 12 11.3358 12 11.75C12 12.1642 12.3358 12.5 12.75 12.5Z" fill="black"/>
<path d="M9.75 8.75C9.75 9.16421 9.41421 9.5 9 9.5C8.58579 9.5 8.25 9.16421 8.25 8.75C8.25 8.33579 8.58579 8 9 8C9.41421 8 9.75 8.33579 9.75 8.75Z" fill="black"/>
<path d="M9.75 11.75C9.75 12.1642 9.41421 12.5 9 12.5C8.58579 12.5 8.25 12.1642 8.25 11.75C8.25 11.3358 8.58579 11 9 11C9.41421 11 9.75 11.3358 9.75 11.75Z" fill="black"/>
<path d="M5.25 9.5C5.66421 9.5 6 9.16421 6 8.75C6 8.33579 5.66421 8 5.25 8C4.83579 8 4.5 8.33579 4.5 8.75C4.5 9.16421 4.83579 9.5 5.25 9.5Z" fill="black"/>
<path d="M5.25 12.5C5.66421 12.5 6 12.1642 6 11.75C6 11.3358 5.66421 11 5.25 11C4.83579 11 4.5 11.3358 4.5 11.75C4.5 12.1642 4.83579 12.5 5.25 12.5Z" fill="black"/>
<path fill-rule="evenodd" clip-rule="evenodd" d="M5.25 0.3125C5.56066 0.3125 5.8125 0.56434 5.8125 0.875V1.44704C6.309 1.43749 6.856 1.43749 7.45759 1.4375H10.5423C11.1439 1.43749 11.691 1.43749 12.1875 1.44704V0.875C12.1875 0.56434 12.4393 0.3125 12.75 0.3125C13.0607 0.3125 13.3125 0.56434 13.3125 0.875V1.49532C13.5075 1.51018 13.6921 1.52886 13.8668 1.55235C14.7461 1.67057 15.4578 1.91966 16.0191 2.48093C16.5803 3.0422 16.8294 3.75392 16.9476 4.63323C17.0625 5.48764 17.0625 6.57935 17.0625 7.95766V9.54231C17.0625 10.9206 17.0625 12.0124 16.9476 12.8668C16.8294 13.7461 16.5803 14.4578 16.0191 15.0191C15.4578 15.5803 14.7461 15.8294 13.8668 15.9476C13.0124 16.0625 11.9206 16.0625 10.5423 16.0625H7.45769C6.07939 16.0625 4.98764 16.0625 4.13323 15.9476C3.25392 15.8294 2.54221 15.5803 1.98093 15.0191C1.41966 14.4578 1.17057 13.7461 1.05235 12.8668C0.937479 12.0124 0.937488 10.9206 0.9375 9.54231V7.95769C0.937488 6.57937 0.937479 5.48764 1.05235 4.63323C1.17057 3.75392 1.41966 3.0422 1.98093 2.48093C2.54221 1.91966 3.25392 1.67057 4.13323 1.55235C4.30793 1.52886 4.49254 1.51018 4.6875 1.49532V0.875C4.6875 0.56434 4.93934 0.3125 5.25 0.3125ZM4.28314 2.66732C3.52857 2.76877 3.09383 2.95902 2.77643 3.27643C2.45902 3.59383 2.26877 4.02857 2.16732 4.78314C2.15014 4.91093 2.13577 5.04546 2.12376 5.1875H15.8762C15.8642 5.04546 15.8499 4.91093 15.8327 4.78314C15.7312 4.02857 15.541 3.59383 15.2236 3.27643C14.9062 2.95902 14.4714 2.76877 13.7169 2.66732C12.9461 2.56369 11.9301 2.5625 10.5 2.5625H7.5C6.06989 2.5625 5.05389 2.56369 4.28314 2.66732ZM2.0625 8C2.0625 7.35949 2.06274 6.80205 2.07231 6.3125H15.9277C15.9373 6.80205 15.9375 7.35949 15.9375 8V9.5C15.9375 10.9301 15.9363 11.9461 15.8327 12.7169C15.7312 13.4714 15.541 13.9062 15.2236 14.2236C14.9062 14.541 14.4714 14.7312 13.7169 14.8327C12.9461 14.9363 11.9301 14.9375 10.5 14.9375H7.5C6.06989 14.9375 5.05388 14.9363 4.28314 14.8327C3.52857 14.7312 3.09383 14.541 2.77643 14.2236C2.45902 13.9062 2.26877 13.4714 2.16732 12.7169C2.0637 11.9461 2.0625 10.9301 2.0625 9.5V8Z" fill="black"/>
</svg>
