<svg width="16" height="16" viewBox="0 0 16 16" fill="none" xmlns="http://www.w3.org/2000/svg">
<path fill-rule="evenodd" clip-rule="evenodd" d="M7.99992 9.3335C8.7363 9.3335 9.33325 8.73654 9.33325 8.00016C9.33325 7.26378 8.7363 6.66683 7.99992 6.66683C7.26354 6.66683 6.66659 7.26378 6.66659 8.00016C6.66659 8.73654 7.26354 9.3335 7.99992 9.3335ZM10.6666 8.00016C10.6666 9.47292 9.47268 10.6668 7.99992 10.6668C6.52716 10.6668 5.33325 9.47292 5.33325 8.00016C5.33325 6.5274 6.52716 5.3335 7.99992 5.3335C9.47268 5.3335 10.6666 6.5274 10.6666 8.00016Z" fill="#4285F4"/>
<path fill-rule="evenodd" clip-rule="evenodd" d="M11.3333 4.00016C10.8282 4.00016 10.3665 3.71483 10.1407 3.26311L10.0268 3.03535C9.91387 2.8095 9.68303 2.66683 9.43052 2.66683H6.56932C6.3168 2.66683 6.08596 2.8095 5.97303 3.03535L5.85915 3.26311C5.6333 3.71483 5.17161 4.00016 4.66658 4.00016H3.33325C2.96506 4.00016 2.66659 4.29864 2.66659 4.66683V11.3335C2.66659 11.7017 2.96506 12.0002 3.33325 12.0002H12.6666C13.0348 12.0002 13.3333 11.7017 13.3333 11.3335V4.66683C13.3333 4.29864 13.0348 4.00016 12.6666 4.00016H11.3333ZM11.3333 2.66683L11.2194 2.43907C10.8806 1.7615 10.1881 1.3335 9.43052 1.3335H6.56932C5.81178 1.3335 5.11925 1.7615 4.78047 2.43907L4.66658 2.66683H3.33325C2.22868 2.66683 1.33325 3.56226 1.33325 4.66683V11.3335C1.33325 12.4381 2.22868 13.3335 3.33325 13.3335H12.6666C13.7712 13.3335 14.6666 12.4381 14.6666 11.3335V4.66683C14.6666 3.56226 13.7712 2.66683 12.6666 2.66683H11.3333Z" fill="#4285F4"/>
<path d="M12.3333 5.66667C12.3333 6.03486 12.0349 6.33333 11.6667 6.33333C11.2985 6.33333 11 6.03486 11 5.66667C11 5.29848 11.2985 5 11.6667 5C12.0349 5 12.3333 5.29848 12.3333 5.66667Z" fill="#4285F4"/>
</svg>
