<svg width="45" height="24" viewBox="0 0 45 24" fill="none" xmlns="http://www.w3.org/2000/svg">
<path d="M12.0991 23.6962C10.4039 23.6962 8.80576 23.3938 7.30484 22.7892C5.80392 22.1737 4.51896 21.3422 3.44996 20.2948C2.38096 19.2474 1.53871 17.9949 0.923228 16.5371C0.307743 15.0686 0 13.5029 0 11.84C0 10.1771 0.307743 8.6168 0.923228 7.15907C1.53871 5.69054 2.38096 4.43258 3.44996 3.38517C4.51896 2.33777 5.80392 1.51172 7.30484 0.907031C8.80576 0.302344 10.4039 0 12.0991 0C14.2264 0 16.17 0.458915 17.9301 1.37674C19.7009 2.28378 21.1317 3.54174 22.2223 5.15064L17.7681 7.90413C17.1418 6.9863 16.332 6.26283 15.3385 5.73373C14.3451 5.20463 13.2653 4.94008 12.0991 4.94008C10.1555 4.94008 8.53041 5.59876 7.22386 6.91611C5.9173 8.22267 5.26402 9.86397 5.26402 11.84C5.26402 13.816 5.9173 15.4627 7.22386 16.7801C8.53041 18.0866 10.1555 18.7399 12.0991 18.7399C13.2761 18.7399 14.3559 18.4808 15.3385 17.9625C16.332 17.4334 17.1418 16.7099 17.7681 15.7921L22.2223 18.5455C21.1317 20.1544 19.7009 21.4178 17.9301 22.3356C16.17 23.2427 14.2264 23.6962 12.0991 23.6962Z" fill="white"/>
<path d="M37.3924 23.2913L30.4601 15.128L28.5488 17.2822V23.2913H23.3982V0.404925H28.5488V10.2851L37.0684 0.404925H43.5958L33.7804 11.4189L44.0979 23.2913H37.3924Z" fill="white"/>
</svg>
