<svg width="32" height="32" viewBox="0 0 32 32" fill="none" xmlns="http://www.w3.org/2000/svg">
<path fill-rule="evenodd" clip-rule="evenodd" d="M16 1.3335C17.4728 1.3335 18.6667 2.5274 18.6667 4.00016H24C26.2091 4.00016 28 5.79102 28 8.00016V25.3335C28 27.5426 26.2091 29.3335 24 29.3335H8C5.79086 29.3335 4 27.5426 4 25.3335V8.00016C4 5.79102 5.79086 4.00016 8 4.00016H13.3333C13.3333 2.5274 14.5272 1.3335 16 1.3335ZM10.6667 6.66683H8C7.26362 6.66683 6.66667 7.26378 6.66667 8.00016V25.3335C6.66667 26.0699 7.26362 26.6668 8 26.6668H24C24.7364 26.6668 25.3333 26.0699 25.3333 25.3335V8.00016C25.3333 7.26378 24.7364 6.66683 24 6.66683H21.3333V8.00016C21.3333 8.73654 20.7364 9.3335 20 9.3335H12C11.2636 9.3335 10.6667 8.73654 10.6667 8.00016V6.66683Z" fill="#4285F4"/>
<path fill-rule="evenodd" clip-rule="evenodd" d="M9.3335 14.6668C9.3335 13.9304 9.93045 13.3335 10.6668 13.3335L21.3335 13.3335C22.0699 13.3335 22.6668 13.9304 22.6668 14.6668C22.6668 15.4032 22.0699 16.0002 21.3335 16.0002L10.6668 16.0002C9.93045 16.0002 9.3335 15.4032 9.3335 14.6668Z" fill="#4285F4"/>
<path fill-rule="evenodd" clip-rule="evenodd" d="M9.3335 19.9998C9.3335 19.2635 9.93045 18.6665 10.6668 18.6665H16.0002C16.7365 18.6665 17.3335 19.2635 17.3335 19.9998C17.3335 20.7362 16.7365 21.3332 16.0002 21.3332H10.6668C9.93045 21.3332 9.3335 20.7362 9.3335 19.9998Z" fill="#4285F4"/>
</svg>
