<svg width="18" height="14" viewBox="0 0 18 14" fill="none" xmlns="http://www.w3.org/2000/svg">
<path fill-rule="evenodd" clip-rule="evenodd" d="M9 4.1875C7.4467 4.1875 6.1875 5.4467 6.1875 7C6.1875 8.5533 7.4467 9.8125 9 9.8125C10.5533 9.8125 11.8125 8.5533 11.8125 7C11.8125 5.4467 10.5533 4.1875 9 4.1875ZM7.3125 7C7.3125 6.06802 8.06802 5.3125 9 5.3125C9.93198 5.3125 10.6875 6.06802 10.6875 7C10.6875 7.93198 9.93198 8.6875 9 8.6875C8.06802 8.6875 7.3125 7.93198 7.3125 7Z" fill="black"/>
<path fill-rule="evenodd" clip-rule="evenodd" d="M9 0.4375C5.6144 0.4375 3.33397 2.46565 2.01043 4.18515L1.98656 4.21615C1.68723 4.6049 1.41155 4.96294 1.22452 5.3863C1.02423 5.83965 0.9375 6.33377 0.9375 7C0.9375 7.66623 1.02423 8.16035 1.22452 8.6137C1.41155 9.03706 1.68723 9.3951 1.98656 9.78386L2.01043 9.81485C3.33397 11.5344 5.6144 13.5625 9 13.5625C12.3856 13.5625 14.666 11.5344 15.9896 9.81485L16.0134 9.78387C16.3128 9.39511 16.5885 9.03707 16.7755 8.6137C16.9758 8.16035 17.0625 7.66623 17.0625 7C17.0625 6.33377 16.9758 5.83965 16.7755 5.3863C16.5885 4.96293 16.3128 4.60489 16.0134 4.21613L15.9896 4.18515C14.666 2.46565 12.3856 0.4375 9 0.4375ZM2.90191 4.87135C4.12398 3.28369 6.11277 1.5625 9 1.5625C11.8872 1.5625 13.876 3.28369 15.0981 4.87135C15.427 5.29869 15.6197 5.55404 15.7464 5.84091C15.8649 6.10901 15.9375 6.4367 15.9375 7C15.9375 7.5633 15.8649 7.89099 15.7464 8.15909C15.6197 8.44596 15.427 8.70131 15.0981 9.12865C13.876 10.7163 11.8872 12.4375 9 12.4375C6.11277 12.4375 4.12398 10.7163 2.90191 9.12865C2.57298 8.70131 2.3803 8.44596 2.25357 8.15909C2.13513 7.89099 2.0625 7.5633 2.0625 7C2.0625 6.4367 2.13513 6.10901 2.25357 5.84091C2.3803 5.55404 2.57298 5.29869 2.90191 4.87135Z" fill="black"/>
</svg>
