<svg width="90" height="17" viewBox="0 0 90 17" fill="none" xmlns="http://www.w3.org/2000/svg">
<path d="M0 14.98H14V0.98H0V14.98ZM16.7631 14V4.34082H18.6977V14H16.7631ZM23.3092 5.4209C22.9856 5.4209 22.7372 5.49837 22.5641 5.65332C22.3954 5.80371 22.3111 6.0293 22.3111 6.33008V6.86328H24.109V8.52441H22.3111V14H20.4928V8.52441H19.3717V6.86328H20.4928V6.21387C20.4928 5.44824 20.6933 4.84668 21.0943 4.40918C21.4999 3.97168 22.1015 3.75293 22.899 3.75293C23.4049 3.75293 23.8538 3.85547 24.2457 4.06055V5.65332C23.9677 5.49837 23.6555 5.4209 23.3092 5.4209ZM33.9131 14L33.2227 12.127H29.0801L28.3965 14H26.3115L30.0303 4.34082H32.3135L36.0254 14H33.9131ZM29.7227 10.3428H32.5664L31.1514 6.4668L29.7227 10.3428ZM40.4865 6.69238C41.1382 6.69238 41.7284 6.85645 42.257 7.18457C42.7902 7.50814 43.2072 7.95703 43.508 8.53125C43.8088 9.10091 43.9592 9.73438 43.9592 10.4316C43.9592 11.1289 43.8088 11.7646 43.508 12.3389C43.2072 12.9085 42.7902 13.3574 42.257 13.6855C41.7284 14.0091 41.1382 14.1709 40.4865 14.1709C39.5477 14.1709 38.773 13.8291 38.1623 13.1455V16.6592H36.3439V6.86328H38.1623V7.71094C38.7684 7.0319 39.5432 6.69238 40.4865 6.69238ZM40.1242 12.4072C40.6893 12.4072 41.1564 12.2204 41.5256 11.8467C41.8993 11.4684 42.0861 10.9967 42.0861 10.4316C42.0861 9.86654 41.8993 9.39714 41.5256 9.02344C41.1564 8.64518 40.6893 8.45605 40.1242 8.45605C39.5637 8.45605 39.0965 8.64518 38.7229 9.02344C38.3492 9.40169 38.1623 9.87109 38.1623 10.4316C38.1623 10.9922 38.3492 11.4616 38.7229 11.8398C39.0965 12.2181 39.5637 12.4072 40.1242 12.4072ZM48.7416 6.69238C49.3933 6.69238 49.9835 6.85645 50.5121 7.18457C51.0453 7.50814 51.4623 7.95703 51.7631 8.53125C52.0639 9.10091 52.2143 9.73438 52.2143 10.4316C52.2143 11.1289 52.0639 11.7646 51.7631 12.3389C51.4623 12.9085 51.0453 13.3574 50.5121 13.6855C49.9835 14.0091 49.3933 14.1709 48.7416 14.1709C47.8028 14.1709 47.0281 13.8291 46.4174 13.1455V16.6592H44.599V6.86328H46.4174V7.71094C47.0235 7.0319 47.7982 6.69238 48.7416 6.69238ZM48.3793 12.4072C48.9444 12.4072 49.4115 12.2204 49.7807 11.8467C50.1544 11.4684 50.3412 10.9967 50.3412 10.4316C50.3412 9.86654 50.1544 9.39714 49.7807 9.02344C49.4115 8.64518 48.9444 8.45605 48.3793 8.45605C47.8187 8.45605 47.3516 8.64518 46.9779 9.02344C46.6042 9.40169 46.4174 9.87109 46.4174 10.4316C46.4174 10.9922 46.6042 11.4616 46.9779 11.8398C47.3516 12.2181 47.8187 12.4072 48.3793 12.4072ZM56.7301 6.74707H57.0377V8.62695H56.7301C56.0829 8.62695 55.5771 8.80469 55.2125 9.16016C54.8525 9.51562 54.6725 9.9987 54.6725 10.6094V14H52.8541V6.86328H54.6725V7.78613C55.2193 7.09342 55.9052 6.74707 56.7301 6.74707ZM63.365 13.0977C62.6313 13.8132 61.7199 14.1709 60.6307 14.1709C59.5415 14.1709 58.6277 13.8132 57.8895 13.0977C57.1557 12.3822 56.7889 11.4935 56.7889 10.4316C56.7889 9.36979 57.1557 8.48112 57.8895 7.76562C58.6277 7.05013 59.5415 6.69238 60.6307 6.69238C61.7199 6.69238 62.6313 7.05013 63.365 7.76562C64.0988 8.48112 64.4656 9.36979 64.4656 10.4316C64.4656 11.4935 64.0988 12.3822 63.365 13.0977ZM60.6307 12.4072C61.1958 12.4072 61.6629 12.2204 62.032 11.8467C62.4012 11.4684 62.5857 10.9967 62.5857 10.4316C62.5857 9.86654 62.4012 9.39714 62.032 9.02344C61.6629 8.64518 61.1958 8.45605 60.6307 8.45605C60.0701 8.45605 59.603 8.64518 59.2293 9.02344C58.8556 9.40169 58.6688 9.87109 58.6688 10.4316C58.6688 10.9922 58.8556 11.4616 59.2293 11.8398C59.603 12.2181 60.0701 12.4072 60.6307 12.4072ZM69.6445 6.86328H71.6748L68.708 14H66.8281L63.8613 6.86328H65.9326L67.7988 11.7168L69.6445 6.86328ZM78.6174 10.4453C78.6174 10.6732 78.6037 10.8874 78.5764 11.0879H73.0461C73.1737 11.5391 73.4175 11.8968 73.7775 12.1611C74.1376 12.4255 74.5751 12.5576 75.09 12.5576C75.5048 12.5576 75.8853 12.4756 76.2316 12.3115C76.578 12.1429 76.8514 11.931 77.052 11.6758L78.2688 12.7422C77.8905 13.1934 77.4211 13.5443 76.8605 13.7949C76.3046 14.0456 75.6962 14.1709 75.0354 14.1709C74.288 14.1709 73.6112 14.0068 73.0051 13.6787C72.399 13.3506 71.925 12.8994 71.5832 12.3252C71.2414 11.7464 71.0705 11.1061 71.0705 10.4043C71.0705 9.71159 71.2346 9.08268 71.5627 8.51758C71.8954 7.94792 72.3511 7.5013 72.9299 7.17773C73.5132 6.85417 74.1581 6.69238 74.8645 6.69238C75.9354 6.69238 76.8286 7.05013 77.5441 7.76562C78.2596 8.47656 78.6174 9.36979 78.6174 10.4453ZM76.0061 8.68848C75.6779 8.4196 75.2928 8.28516 74.8508 8.28516C74.4087 8.28516 74.0236 8.4196 73.6955 8.68848C73.3674 8.9528 73.1464 9.30827 73.0324 9.75488H76.676C76.562 9.30827 76.3387 8.9528 76.0061 8.68848ZM84.5961 3.91699H86.4145V14H84.5961V13.1455C83.9717 13.8291 83.197 14.1709 82.2719 14.1709C81.2784 14.1709 80.449 13.8132 79.7836 13.0977C79.1182 12.3822 78.7855 11.4935 78.7855 10.4316C78.7855 9.36979 79.1182 8.48112 79.7836 7.76562C80.449 7.05013 81.2784 6.69238 82.2719 6.69238C83.2016 6.69238 83.9763 7.0319 84.5961 7.71094V3.91699ZM82.6205 12.4072C83.1856 12.4072 83.655 12.2181 84.0287 11.8398C84.407 11.4616 84.5961 10.9922 84.5961 10.4316C84.5961 9.87109 84.407 9.40169 84.0287 9.02344C83.655 8.64518 83.1856 8.45605 82.6205 8.45605C82.06 8.45605 81.5928 8.64518 81.2191 9.02344C80.8454 9.40169 80.6586 9.87109 80.6586 10.4316C80.6586 10.9922 80.8454 11.4616 81.2191 11.8398C81.5928 12.2181 82.06 12.4072 82.6205 12.4072ZM88.4352 9.56348C88.0751 9.56348 87.7721 9.44271 87.526 9.20117C87.2844 8.95508 87.1637 8.6543 87.1637 8.29883C87.1637 7.94336 87.2844 7.64486 87.526 7.40332C87.7721 7.16178 88.0751 7.04102 88.4352 7.04102C88.7906 7.04102 89.0891 7.16178 89.3307 7.40332C89.5768 7.64486 89.6998 7.94336 89.6998 8.29883C89.6998 8.6543 89.5768 8.95508 89.3307 9.20117C89.0891 9.44271 88.7906 9.56348 88.4352 9.56348ZM88.4352 14.123C88.0751 14.123 87.7721 14.0023 87.526 13.7607C87.2844 13.5192 87.1637 13.2207 87.1637 12.8652C87.1637 12.5098 87.2844 12.2113 87.526 11.9697C87.7721 11.7282 88.0751 11.6074 88.4352 11.6074C88.7906 11.6074 89.0891 11.7282 89.3307 11.9697C89.5768 12.2113 89.6998 12.5098 89.6998 12.8652C89.6998 13.2207 89.5768 13.5192 89.3307 13.7607C89.0891 14.0023 88.7906 14.123 88.4352 14.123Z" fill="black"/>
</svg>
