<svg width="84" height="17" viewBox="0 0 84 17" fill="none" xmlns="http://www.w3.org/2000/svg">
<path d="M0 14.98H14V0.98H0V14.98ZM16.7631 14V4.34082H18.6977V14H16.7631ZM23.3092 5.4209C22.9856 5.4209 22.7372 5.49837 22.5641 5.65332C22.3954 5.80371 22.3111 6.0293 22.3111 6.33008V6.86328H24.109V8.52441H22.3111V14H20.4928V8.52441H19.3717V6.86328H20.4928V6.21387C20.4928 5.44824 20.6933 4.84668 21.0943 4.40918C21.4999 3.97168 22.1015 3.75293 22.899 3.75293C23.4049 3.75293 23.8538 3.85547 24.2457 4.06055V5.65332C23.9677 5.49837 23.6555 5.4209 23.3092 5.4209ZM32.4434 14L30.2148 10.5547H29.0664V14H27.1318V4.34082H31.2471C32.1768 4.34082 32.9561 4.64388 33.585 5.25C34.2139 5.85156 34.5283 6.60352 34.5283 7.50586C34.5283 8.18945 34.3278 8.79329 33.9268 9.31738C33.5303 9.83691 33.0062 10.1992 32.3545 10.4043L34.7676 14H32.4434ZM29.0664 6.15918V8.87305H31.2061C31.5843 8.87305 31.901 8.74544 32.1562 8.49023C32.4115 8.23047 32.5391 7.9069 32.5391 7.51953C32.5391 7.13216 32.4115 6.80859 32.1562 6.54883C31.901 6.28906 31.5843 6.15918 31.2061 6.15918H29.0664ZM42.0998 10.4453C42.0998 10.6732 42.0861 10.8874 42.0588 11.0879H36.5285C36.6561 11.5391 36.8999 11.8968 37.26 12.1611C37.62 12.4255 38.0575 12.5576 38.5725 12.5576C38.9872 12.5576 39.3677 12.4756 39.7141 12.3115C40.0604 12.1429 40.3339 11.931 40.5344 11.6758L41.7512 12.7422C41.3729 13.1934 40.9035 13.5443 40.343 13.7949C39.787 14.0456 39.1786 14.1709 38.5178 14.1709C37.7704 14.1709 37.0936 14.0068 36.4875 13.6787C35.8814 13.3506 35.4074 12.8994 35.0656 12.3252C34.7238 11.7464 34.5529 11.1061 34.5529 10.4043C34.5529 9.71159 34.717 9.08268 35.0451 8.51758C35.3778 7.94792 35.8335 7.5013 36.4123 7.17773C36.9956 6.85417 37.6405 6.69238 38.3469 6.69238C39.4178 6.69238 40.3111 7.05013 41.0266 7.76562C41.7421 8.47656 42.0998 9.36979 42.0998 10.4453ZM39.4885 8.68848C39.1604 8.4196 38.7753 8.28516 38.3332 8.28516C37.8911 8.28516 37.5061 8.4196 37.1779 8.68848C36.8498 8.9528 36.6288 9.30827 36.5148 9.75488H40.1584C40.0445 9.30827 39.8212 8.9528 39.4885 8.68848ZM44.4623 5.48242C44.2436 5.70117 43.9724 5.81055 43.6488 5.81055C43.3253 5.81055 43.0518 5.70117 42.8285 5.48242C42.6098 5.26367 42.5004 4.99479 42.5004 4.67578C42.5004 4.35677 42.6098 4.08789 42.8285 3.86914C43.0518 3.65039 43.3253 3.54102 43.6488 3.54102C43.9724 3.54102 44.2436 3.65039 44.4623 3.86914C44.6856 4.08789 44.7973 4.35677 44.7973 4.67578C44.7973 4.99479 44.6856 5.26367 44.4623 5.48242ZM42.3227 16.8301C41.9444 16.8301 41.6163 16.7731 41.3383 16.6592V15.0254C41.5251 15.1165 41.737 15.1621 41.974 15.1621C42.4844 15.1621 42.7396 14.9092 42.7396 14.4033V6.86328H44.558V14.6152C44.558 15.2988 44.3689 15.8389 43.9906 16.2354C43.6124 16.6318 43.0564 16.8301 42.3227 16.8301ZM52.7037 10.4453C52.7037 10.6732 52.69 10.8874 52.6627 11.0879H47.1324C47.26 11.5391 47.5038 11.8968 47.8639 12.1611C48.2239 12.4255 48.6614 12.5576 49.1764 12.5576C49.5911 12.5576 49.9716 12.4756 50.318 12.3115C50.6643 12.1429 50.9378 11.931 51.1383 11.6758L52.3551 12.7422C51.9768 13.1934 51.5074 13.5443 50.9469 13.7949C50.3909 14.0456 49.7825 14.1709 49.1217 14.1709C48.3743 14.1709 47.6975 14.0068 47.0914 13.6787C46.4853 13.3506 46.0113 12.8994 45.6695 12.3252C45.3277 11.7464 45.1568 11.1061 45.1568 10.4043C45.1568 9.71159 45.3209 9.08268 45.649 8.51758C45.9817 7.94792 46.4374 7.5013 47.0162 7.17773C47.5995 6.85417 48.2444 6.69238 48.9508 6.69238C50.0217 6.69238 50.915 7.05013 51.6305 7.76562C52.346 8.47656 52.7037 9.36979 52.7037 10.4453ZM50.0924 8.68848C49.7643 8.4196 49.3792 8.28516 48.9371 8.28516C48.4951 8.28516 48.11 8.4196 47.7818 8.68848C47.4537 8.9528 47.2327 9.30827 47.1188 9.75488H50.7623C50.6484 9.30827 50.4251 8.9528 50.0924 8.68848ZM56.6795 14.1709C55.5903 14.1709 54.6766 13.8132 53.9383 13.0977C53.2046 12.3822 52.8377 11.4935 52.8377 10.4316C52.8377 9.36979 53.2046 8.48112 53.9383 7.76562C54.6766 7.05013 55.5903 6.69238 56.6795 6.69238C57.3904 6.69238 58.033 6.85189 58.6072 7.1709C59.186 7.48991 59.6395 7.92285 59.9676 8.46973L58.3816 9.41992C58.2176 9.12826 57.9852 8.89583 57.6844 8.72266C57.3882 8.54492 57.0532 8.45605 56.6795 8.45605C56.1189 8.45605 55.6518 8.64518 55.2781 9.02344C54.9044 9.40169 54.7176 9.87109 54.7176 10.4316C54.7176 10.9922 54.9044 11.4616 55.2781 11.8398C55.6518 12.2181 56.1189 12.4072 56.6795 12.4072C57.0486 12.4072 57.3836 12.3206 57.6844 12.1475C57.9852 11.9697 58.2176 11.7327 58.3816 11.4365L59.9676 12.3867C59.6395 12.9382 59.186 13.3734 58.6072 13.6924C58.033 14.0114 57.3904 14.1709 56.6795 14.1709ZM64.75 8.52441H62.8291V11.4912C62.8291 12.1019 63.1572 12.4072 63.8135 12.4072C64.0915 12.4072 64.4036 12.3275 64.75 12.168V13.8633C64.3717 14.0684 63.9274 14.1709 63.417 14.1709C62.6195 14.1709 62.0179 13.959 61.6123 13.5352C61.2113 13.1068 61.0107 12.5234 61.0107 11.7852V8.52441H59.876V6.86328H61.0107V5.05176H62.8291V6.86328H64.75V8.52441ZM72.2873 10.4453C72.2873 10.6732 72.2736 10.8874 72.2463 11.0879H66.716C66.8436 11.5391 67.0874 11.8968 67.4475 12.1611C67.8075 12.4255 68.245 12.5576 68.76 12.5576C69.1747 12.5576 69.5552 12.4756 69.9016 12.3115C70.2479 12.1429 70.5214 11.931 70.7219 11.6758L71.9387 12.7422C71.5604 13.1934 71.091 13.5443 70.5305 13.7949C69.9745 14.0456 69.3661 14.1709 68.7053 14.1709C67.9579 14.1709 67.2811 14.0068 66.675 13.6787C66.0689 13.3506 65.5949 12.8994 65.2531 12.3252C64.9113 11.7464 64.7404 11.1061 64.7404 10.4043C64.7404 9.71159 64.9045 9.08268 65.2326 8.51758C65.5653 7.94792 66.021 7.5013 66.5998 7.17773C67.1831 6.85417 67.828 6.69238 68.5344 6.69238C69.6053 6.69238 70.4986 7.05013 71.2141 7.76562C71.9296 8.47656 72.2873 9.36979 72.2873 10.4453ZM69.676 8.68848C69.3479 8.4196 68.9628 8.28516 68.5207 8.28516C68.0786 8.28516 67.6936 8.4196 67.3654 8.68848C67.0373 8.9528 66.8163 9.30827 66.7023 9.75488H70.3459C70.232 9.30827 70.0087 8.9528 69.676 8.68848ZM78.266 3.91699H80.0844V14H78.266V13.1455C77.6417 13.8291 76.8669 14.1709 75.9418 14.1709C74.9483 14.1709 74.1189 13.8132 73.4535 13.0977C72.7881 12.3822 72.4555 11.4935 72.4555 10.4316C72.4555 9.36979 72.7881 8.48112 73.4535 7.76562C74.1189 7.05013 74.9483 6.69238 75.9418 6.69238C76.8715 6.69238 77.6462 7.0319 78.266 7.71094V3.91699ZM76.2904 12.4072C76.8555 12.4072 77.3249 12.2181 77.6986 11.8398C78.0769 11.4616 78.266 10.9922 78.266 10.4316C78.266 9.87109 78.0769 9.40169 77.6986 9.02344C77.3249 8.64518 76.8555 8.45605 76.2904 8.45605C75.7299 8.45605 75.2628 8.64518 74.8891 9.02344C74.5154 9.40169 74.3285 9.87109 74.3285 10.4316C74.3285 10.9922 74.5154 11.4616 74.8891 11.8398C75.2628 12.2181 75.7299 12.4072 76.2904 12.4072ZM82.1051 9.56348C81.7451 9.56348 81.442 9.44271 81.1959 9.20117C80.9544 8.95508 80.8336 8.6543 80.8336 8.29883C80.8336 7.94336 80.9544 7.64486 81.1959 7.40332C81.442 7.16178 81.7451 7.04102 82.1051 7.04102C82.4605 7.04102 82.7591 7.16178 83.0006 7.40332C83.2467 7.64486 83.3697 7.94336 83.3697 8.29883C83.3697 8.6543 83.2467 8.95508 83.0006 9.20117C82.7591 9.44271 82.4605 9.56348 82.1051 9.56348ZM82.1051 14.123C81.7451 14.123 81.442 14.0023 81.1959 13.7607C80.9544 13.5192 80.8336 13.2207 80.8336 12.8652C80.8336 12.5098 80.9544 12.2113 81.1959 11.9697C81.442 11.7282 81.7451 11.6074 82.1051 11.6074C82.4605 11.6074 82.7591 11.7282 83.0006 11.9697C83.2467 12.2113 83.3697 12.5098 83.3697 12.8652C83.3697 13.2207 83.2467 13.5192 83.0006 13.7607C82.7591 14.0023 82.4605 14.123 82.1051 14.123Z" fill="black"/>
</svg>
