<svg width="19" height="18" viewBox="0 0 19 18" fill="none" xmlns="http://www.w3.org/2000/svg">
<g clip-path="url(#clip0_199_3649)">
<path fill-rule="evenodd" clip-rule="evenodd" d="M8.41156 16.1458L8.5991 15.829C8.89966 15.3212 9.04995 15.0673 9.28934 14.9256C9.52874 14.784 9.84101 14.774 10.4655 14.7541C11.0511 14.7353 11.4447 14.6842 11.7813 14.5449C12.4898 14.2514 13.0527 13.6885 13.3462 12.9799C13.5663 12.4486 13.5663 11.7749 13.5663 10.4276V9.84928C13.5663 7.9562 13.5663 7.00966 13.1402 6.31433C12.9017 5.92525 12.5746 5.59812 12.1855 5.3597C11.4902 4.93359 10.5437 4.93359 8.6506 4.93359H6.91566C5.02259 4.93359 4.07606 4.93359 3.38073 5.3597C2.99165 5.59812 2.66453 5.92525 2.4261 6.31433C2 7.00966 2 7.9562 2 9.84928V10.4276C2 11.7749 2 12.4486 2.22011 12.9799C2.51358 13.6885 3.0765 14.2514 3.78501 14.5449C4.12153 14.6842 4.51511 14.7353 5.1007 14.7541C5.72524 14.774 6.0375 14.784 6.2769 14.9256C6.51629 15.0673 6.66658 15.3212 6.96714 15.829L7.15468 16.1458C7.4341 16.6179 8.13214 16.6179 8.41156 16.1458ZM10.3133 10.7167C10.7125 10.7167 11.0361 10.3931 11.0361 9.99384C11.0361 9.59459 10.7125 9.27094 10.3133 9.27094C9.91401 9.27094 9.59036 9.59459 9.59036 9.99384C9.59036 10.3931 9.91401 10.7167 10.3133 10.7167ZM8.50602 9.99384C8.50602 10.3931 8.18237 10.7167 7.78313 10.7167C7.38389 10.7167 7.06024 10.3931 7.06024 9.99384C7.06024 9.59459 7.38389 9.27094 7.78313 9.27094C8.18237 9.27094 8.50602 9.59459 8.50602 9.99384ZM5.25301 10.7167C5.65225 10.7167 5.9759 10.3931 5.9759 9.99384C5.9759 9.59459 5.65225 9.27094 5.25301 9.27094C4.85377 9.27094 4.53012 9.59459 4.53012 9.99384C4.53012 10.3931 4.85377 10.7167 5.25301 10.7167Z" fill="white"/>
<path d="M11.8772 1.5C12.741 1.49999 13.4279 1.49999 13.9788 1.55237C14.5437 1.60608 15.0212 1.71865 15.4467 1.97937C15.8844 2.2476 16.2524 2.61561 16.5206 3.05332C16.7813 3.47877 16.8939 3.95636 16.9476 4.52122C17 5.07209 17 5.75903 17 6.62279V7.21275C17 7.82749 17 8.31646 16.9729 8.71296C16.9453 9.11861 16.8875 9.46694 16.7524 9.7931C16.4222 10.5902 15.7889 11.2235 14.9919 11.5536C14.9719 11.5619 14.9519 11.5699 14.9318 11.5776C14.8355 11.6143 14.7531 11.6458 14.6807 11.6693C14.6913 11.3177 14.6913 10.9172 14.6913 10.4653V9.79604C14.6913 8.89483 14.6913 8.13991 14.633 7.52616C14.5719 6.88363 14.439 6.28066 14.0994 5.72652C13.7682 5.18607 13.3138 4.73167 12.7734 4.40048C12.2192 4.0609 11.6162 3.928 10.9737 3.86691C10.36 3.80855 9.60503 3.80857 8.70382 3.80859H6.86245C6.25038 3.80858 5.70579 3.80856 5.22707 3.82684C5.24937 3.74955 5.27993 3.66096 5.31579 3.55698C5.3768 3.38012 5.45389 3.21286 5.55165 3.05332C5.81988 2.61561 6.1879 2.2476 6.62561 1.97937C7.05105 1.71865 7.52864 1.60608 8.0935 1.55237C8.64438 1.49999 9.33129 1.49999 10.1951 1.5H11.8772Z" fill="white"/>
<circle cx="16.5" cy="4" r="1.75" fill="#EA4335" stroke="#4285F4" stroke-width="0.5"/>
</g>
<defs>
<clipPath id="clip0_199_3649">
<rect width="18" height="18" fill="white" transform="translate(0.5)"/>
</clipPath>
</defs>
</svg>
