<svg width="18" height="18" viewBox="0 0 18 18" fill="none" xmlns="http://www.w3.org/2000/svg">
<path fill-rule="evenodd" clip-rule="evenodd" d="M6.24351 5.24881L5.11279 3.70691C5.0359 3.60206 4.89059 3.57533 4.78142 3.64597C3.3021 4.60318 2.89546 6.06538 3.48895 7.14328C4.13802 8.32211 5.13909 9.7678 6.67461 11.3033C8.21014 12.8388 9.65583 13.8399 10.8347 14.489C11.9126 15.0825 13.3748 14.6758 14.332 13.1965C14.4026 13.0874 14.3759 12.942 14.271 12.8652L12.7291 11.7344C12.5024 11.5681 12.2017 11.5427 11.9502 11.6684L11.3356 11.9757C10.8129 12.2371 10.0963 12.3289 9.41798 11.9799C8.96449 11.7466 8.26552 11.3032 7.47011 10.5078C6.6747 9.71242 6.23132 9.01346 5.99801 8.55996C5.64904 7.88164 5.74087 7.16506 6.00223 6.64233L6.30953 6.02774C6.43528 5.77625 6.40979 5.47555 6.24351 5.24881ZM3.96654 2.38662C2.06116 3.61951 1.08034 5.87872 2.17496 7.86676C2.88936 9.16424 3.97448 10.7245 5.61395 12.364C7.25342 14.0035 8.8137 15.0886 10.1112 15.803C12.0992 16.8976 14.3584 15.9168 15.5913 14.0114C16.0935 13.2353 15.9035 12.2022 15.1581 11.6555L13.6162 10.5248C12.936 10.026 12.0339 9.94953 11.2794 10.3268L10.6648 10.6341C10.4869 10.723 10.2811 10.7371 10.1042 10.6461C9.78194 10.4803 9.21087 10.1273 8.53077 9.44717C7.85067 8.76708 7.49764 8.196 7.33185 7.87375C7.24085 7.69687 7.25492 7.49107 7.34388 7.31315L7.65117 6.69856C8.02841 5.94409 7.95195 5.04199 7.45312 4.36176L6.3224 2.81987C5.77573 2.07441 4.74266 1.88442 3.96654 2.38662Z" fill="white"/>
</svg>
